# xmcd
#
# Track frame offsets: 
#        150
#        20459
#        40793
#        60283
#        82180
#        108181
#        125057
#        145812
#        164582
#        181066
#        205200
#        224580
#
# Disc length: 3232 seconds
#
# Revision: 2
# Processed by: cddbd v1.5.2PL0 Copyright (c) Steve Scherf et al.
# Submitted via: ExactAudioCopy v0.95b2
#
DISCID=a90c9e0c
DTITLE=The O'Jays - Together We Are One
DYEAR=2004
DGENRE=R&B
TTITLE0=All Eyes On Africa
TTITLE1=Together We Are One
TTITLE2=Your Place Or Mine
TTITLE3=I Know What You're Doing (But I'm Too Scared To Do Something A
TTITLE3=bout It)
TTITLE4=Ruler Of The Universe
TTITLE5=Pretty Is As Pretty Does (Just Too Pretty For Words)
TTITLE6=Promises
TTITLE7=When Sunny Gets Blue
TTITLE8=Just Don't Seem To Be My Day
TTITLE9=Packin' My Bags (Movin' On)
TTITLE10=Hurry Home
TTITLE11=This Could Be The Last Time
EXTD=
EXTT0=
EXTT1=
EXTT2=
EXTT3=
EXTT4=
EXTT5=
EXTT6=
EXTT7=
EXTT8=
EXTT9=
EXTT10=
EXTT11=
PLAYORDER=
